Coordinates
version=1
nRows=17
nColumns=36
inDegrees=yes

Units are S.I. units (second, meters, Newtons, ...)
If the header above contains a line with 'inDegrees', this indicates whether rotational values are in degrees (yes) or radians (no).

endheader
time	pelvis_tilt	pelvis_list	pelvis_rotation	pelvis_tx	pelvis_ty	pelvis_tz	hip_flexion_r	hip_adduction_r	hip_rotation_r	knee_angle_r	knee_angle_r_beta	ankle_angle_r	subtalar_angle_r	mtp_angle_r	hip_flexion_l	hip_adduction_l	hip_rotation_l	knee_angle_l	knee_angle_l_beta	ankle_angle_l	subtalar_angle_l	mtp_angle_l	lumbar_extension	lumbar_bending	lumbar_rotation	arm_flex_r	arm_add_r	arm_rot_r	elbow_flex_r	pro_sup_r	arm_flex_l	arm_add_l	arm_rot_l	elbow_flex_l	pro_sup_l
      0.70000000	      0.16429934	      5.40323842	     -3.12991831	      0.66364398	      0.92128810	     -0.21963448	    -16.42935696	     -2.35077243	      3.83748730	     30.46939705	      0.53179130	     -5.49240331	    -22.99988960	     -7.19997064	     24.53966483	      2.94221233	     -2.70565178	     22.41311587	      0.39118267	     -2.86925549	    -12.79009769	     -7.19997064	     -9.68703938	    -25.26980031	      6.85046252	      7.26319087	     -3.01321455	     11.70444215	     35.45221629	    110.39574309	      1.77213438	    -11.88322431	    -17.30315174	     23.39412593	    102.78275841
      0.71000000	      0.26501808	      5.59927120	     -3.05937003	      0.67684188	      0.92334801	     -0.22103845	    -14.65750825	     -2.68889668	      3.15280848	     34.48106865	      0.60180818	     -8.18928731	    -23.64573067	     -7.20458742	     23.80887459	      3.34195779	     -2.53954352	     23.05410417	      0.40237002	     -1.63177916	    -12.81214794	     -7.20458742	     -9.86013166	    -25.78742371	      6.63802890	      7.03508554	     -2.88311248	     12.15815325	     35.41157846	    110.51386007	      1.94022206	    -11.96272878	    -17.66546844	     23.41204178	    102.64960552
      0.72000000	      0.29603326	      5.47989773	     -3.03013989	      0.68960596	      0.92536423	     -0.22231017	    -12.72711156	     -2.63332554	      2.72065373	     38.32310954	      0.66886444	    -11.80842882	    -25.84196668	     -7.22097288	     23.13839262	      3.32314604	     -2.56964622	     23.66294582	      0.41299632	     -0.11679698	    -12.17968059	     -7.22097288	     -9.95589425	    -25.89284732	      6.26573710	      7.00235727	     -2.88862663	     13.50619387	     35.12019710	    110.78939018	      1.90804318	    -11.84762039	    -18.82805073	     23.79934121	    102.30478911
      0.73000000	      0.32554588	      5.53445837	     -2.99802784	      0.70215805	      0.92735782	     -0.22397020	    -10.68214851	     -2.94212182	      1.93585785	     42.18655819	      0.73629434	    -13.30916515	    -26.33328936	     -7.22759461	     22.26697962	      3.60738264	     -2.38127596	     23.80988731	      0.41556093	      0.81832640	    -12.23536572	     -7.22759461	    -10.03908313	    -26.08660169	      5.99813773	      6.79809547	     -2.92205362	     14.18167487	     35.19091859	    110.89256425	      2.01442224	    -11.76831810	    -19.22797741	     23.98119257	    102.22088487
      0.74000000	      0.40832112	      5.52820268	     -3.01878112	      0.71447388	      0.92947912	     -0.22566882	     -8.70603815	     -3.24048458	      1.16299836	     45.72041558	      0.79797179	    -14.25172693	    -26.96473915	     -7.23172666	     21.24071669	      3.81797372	     -2.29268564	     23.74162044	      0.41436945	      1.73888133	    -12.27419378	     -7.23172666	    -10.19019878	    -26.14987341	      5.66026044	      6.64629612	     -2.97541674	     14.82479307	     35.29834308	    110.98468957	      2.10452114	    -11.67396635	    -19.50608776	     24.10519530	    102.16925651
      0.75000000	      0.34052826	      5.35375477	     -3.10346923	      0.72639924	      0.93143645	     -0.22728066	     -6.52816301	     -3.30729099	      0.61791367	     48.98199214	      0.85489704	    -14.79805292	    -28.16804782	     -7.24345756	     20.39622457	      3.76567054	     -2.41665206	     23.69945014	      0.41363344	      2.66939594	    -11.93106998	     -7.24345756	    -10.13410626	    -25.99054754	      5.27163449	      6.70810075	     -3.22822441	     16.44391267	     35.16114173	    111.14261937	      2.02753715	    -11.46171119	    -20.28395476	     24.53438220	    102.06426870
      0.76000000	      0.52528524	      5.24225187	     -3.18957676	      0.73818696	      0.93393790	     -0.22901837	     -4.70776255	     -3.49152302	      0.01974839	     51.77211162	      0.90359381	    -14.42353656	    -29.02953300	     -7.24569692	     19.07801850	      3.86618113	     -2.37180931	     23.23329283	      0.40549746	      3.32532470	    -11.88210060	     -7.24569692	    -10.46489473	    -25.83373642	      4.87100250	      6.66380561	     -3.30338149	     16.75202094	     35.22925278	    111.17263468	      2.18142550	    -11.32482963	    -20.34490465	     24.64233828	    102.06550834
      0.77000000	      0.26688861	      5.11511396	     -3.35877096	      0.74976987	      0.93580985	     -0.23067453	     -2.29311842	     -3.68742667	     -0.52829714	     54.39711969	      0.94940884	    -13.18374398	    -29.64978829	     -7.25655975	     18.27477242	      3.82229111	     -2.71910129	     22.79558336	      0.39785798	      4.13303902	    -11.36716195	     -7.25655975	    -10.11991816	    -25.62819962	      4.58931046	      6.65894256	     -3.55938047	     18.12109936	     35.09956161	    111.27121974	      2.07524612	    -11.11695177	    -20.72059381	     25.03720205	    102.06286795
      0.78000000	      0.32442716	      4.92321527	     -3.47784309	      0.76117302	      0.93840703	     -0.23234573	     -0.36595342	     -3.71941042	     -0.95290792	     56.37878007	      0.98399534	    -12.28084358	    -30.59874910	     -7.25848578	     16.97403709	      3.79807315	     -2.80537088	     22.03413706	      0.38456824	      4.60145939	    -11.18715933	     -7.25848578	    -10.32096471	    -25.30613639	      4.20475717	      6.62091476	     -3.65273380	     18.27244715	     35.08799015	    111.27731149	      2.25815307	    -10.96220305	    -20.68027258	     25.15020600	    102.08336507
      0.79000000	      0.00405130	      4.83206327	     -3.67148455	      0.77247345	      0.94040834	     -0.23388935	      2.06710648	     -3.89948637	     -1.35575101	     58.18570576	      1.01553214	    -10.55668309	    -30.83678725	     -7.26555348	     16.11257828	      3.78505125	     -3.21081323	     21.28661351	      0.37152149	      5.22610825	    -10.54308016	     -7.26555348	     -9.93553828	    -25.07552568	      4.02610317	      6.48770368	     -3.76724095	     18.80805283	     34.93907018	    111.30635108	      2.30024923	    -10.81754257	    -20.54441968	     25.40893188	    102.14330841
      0.80000000	     -0.14834418	      4.60432457	     -3.80475225	      0.78361954	      0.94279591	     -0.23546656	      4.18225975	     -3.83830857	     -1.66339299	     59.40727558	      1.03685256	     -9.33647706	    -31.24222579	     -7.27012536	     14.99687456	      3.67705212	     -3.45140296	     20.38553202	      0.35579465	      5.68322387	    -10.04631367	     -7.27012536	     -9.84254860	    -24.63207669	      3.71245384	      6.37946499	     -3.88178193	     18.92274626	     34.78742493	    111.29428350	      2.43442530	    -10.66531258	    -20.33570174	     25.54559373	    102.19570555
      0.81000000	     -0.34465451	      4.31562610	     -3.93653561	      0.79466816	      0.94513187	     -0.23695319	      6.28427270	     -3.66470387	     -1.92037105	     60.20515230	      1.05077813	     -8.19324524	    -31.39609801	     -7.27464442	     13.92060542	      3.49205245	     -3.68323301	     19.46060924	      0.33965171	      6.10202904	     -9.46287913	     -7.27464442	     -9.67780031	    -24.08790887	      3.41422147	      6.24367049	     -3.96011635	     18.90073865	     34.61274654	    111.26713834	      2.57022895	    -10.51869458	    -20.00028052	     25.68435120	    102.26631086
      0.82000000	     -0.42633452	      3.88503740	     -3.93244475	      0.80549265	      0.94764611	     -0.23861526	      8.12375216	     -3.33856928	     -2.32876073	     60.46577678	      1.05532689	     -7.87261736	    -31.57317402	     -7.27523218	     12.83621307	      3.17453594	     -3.98840232	     18.72360650	      0.32678858	      6.26403700	     -9.36175702	     -7.27523218	     -9.81355466	    -23.33013884	      2.94315594	      6.13764141	     -4.10474590	     18.83780257	     34.52891365	    111.25196396	      2.86025426	    -10.29135260	    -19.86709447	     25.80083994	    102.29762430
      0.83000000	     -0.69073950	      3.46814152	     -4.08123312	      0.81649539	      0.94988818	     -0.23993821	     10.07837414	     -2.86568721	     -2.35913906	     60.35465804	      1.05338750	     -6.93248250	    -31.65859897	     -7.27725310	     11.66708267	      2.90069810	     -3.82712392	     17.46953843	      0.30490096	      6.55922995	     -8.74130750	     -7.27725310	     -9.48513241	    -22.58094818	      2.60505543	      5.95571696	     -4.16257556	     18.64827256	     34.34122807	    111.20666024	      2.86969744	    -10.15305568	    -19.47987641	     25.95329820	    102.37765700
      0.84000000	     -0.83322349	      3.10140212	     -4.07051466	      0.82715630	      0.95208748	     -0.24171402	     11.87184075	     -2.61272439	     -2.75305707	     59.97204083	      1.04670957	     -6.56990226	    -31.63953392	     -7.27792122	     10.65257575	      2.67452608	     -4.09076598	     16.69802059	      0.29143544	      6.73248354	     -8.57348832	     -7.27792122	     -9.50264080	    -21.81344784	      2.14286415	      5.80713292	     -4.33430205	     18.52558823	     34.20745028	    111.17914837	      3.14151101	     -9.91964617	    -19.25661478	     26.10358303	    102.42744538
      0.85000000	     -0.85313172	      2.54599379	     -4.08364556	      0.83825726	      0.95453077	     -0.24323492	     13.22337972	     -2.02462258	     -2.97090716	     58.98622961	      1.02950392	     -4.61032404	    -30.42020381	     -7.29196853	      9.23109980	      2.25883789	     -4.04292648	     15.50024431	      0.27053030	      7.48164013	     -7.01158050	     -7.29196853	     -9.48283509	    -20.78832559	      2.00974682	      5.38277651	     -4.35958825	     17.22763719	     34.11693747	    110.98446383	      3.49082246	    -10.00160564	    -16.73892714	     25.70480459	    102.75814659
      0.86000000	     -0.84277047	      2.04011519	     -4.03818379	      0.84908320	      0.95685610	     -0.24502106	     14.48455455	     -1.53339804	     -3.27853924	     57.65533914	      1.00627550	     -4.26100765	    -30.26101340	     -7.29694240	      7.87885535	      1.95477885	     -3.87547280	     14.41184106	      0.25153408	      7.55650370	     -6.78662662	     -7.29694240	     -9.61485882	    -19.79309546	      1.53229160	      5.22108054	     -4.50535169	     16.72003422	     33.93845193	    110.93326911	      3.73509086	     -9.82428021	    -16.01830121	     25.81624618	    102.81893428
